<mxfile host="app.diagrams.net" modified="2023-10-20T11:17:12.502Z" agent="Mozilla/5.0 (Windows NT 10.0; Win64; x64) AppleWebKit/537.36 (KHTML, like Gecko) Chrome/118.0.0.0 Safari/537.36" etag="mV-RQphByccJlKLN3ab4" version="22.0.5" type="github">
  <diagram name="Page-1" id="9361dd3d-8414-5efd-6122-117bd74ce7a7">
    <mxGraphModel dx="2840" dy="2535" grid="1" gridSize="10" guides="1" tooltips="1" connect="1" arrows="1" fold="1" page="0" pageScale="1.5" pageWidth="826" pageHeight="1169" background="none" math="0" shadow="0">
      <root>
        <mxCell id="0" />
        <mxCell id="1" parent="0" />
        <object label="Студент" id="BIsx5rSYDtpPCg-pWCxZ-89">
          <mxCell style="shape=umlActor;verticalLabelPosition=bottom;verticalAlign=top;html=1;outlineConnect=0;" parent="1" vertex="1">
            <mxGeometry x="-1900" y="-830" width="60" height="130" as="geometry" />
          </mxCell>
        </object>
        <mxCell id="_FZ567E234hKml-eKeyB-5" value="Планирование учебного процесса" style="ellipse;whiteSpace=wrap;html=1;" parent="1" vertex="1">
          <mxGeometry x="-1410" y="-1060" width="120" height="80" as="geometry" />
        </mxCell>
        <mxCell id="_FZ567E234hKml-eKeyB-8" value="Система составления расписания" style="shape=umlActor;verticalLabelPosition=bottom;verticalAlign=top;html=1;outlineConnect=0;" parent="1" vertex="1">
          <mxGeometry x="-1160" y="-990" width="70" height="120" as="geometry" />
        </mxCell>
        <mxCell id="_FZ567E234hKml-eKeyB-10" value="Преподаватель" style="shape=umlActor;verticalLabelPosition=bottom;verticalAlign=top;html=1;outlineConnect=0;" parent="1" vertex="1">
          <mxGeometry x="-1090" y="-670" width="80" height="120" as="geometry" />
        </mxCell>
        <mxCell id="_FZ567E234hKml-eKeyB-12" value="Директор ИПИТ" style="shape=umlActor;verticalLabelPosition=bottom;verticalAlign=top;html=1;outlineConnect=0;" parent="1" vertex="1">
          <mxGeometry x="-1580" y="-580" width="80" height="110" as="geometry" />
        </mxCell>
        <mxCell id="_FZ567E234hKml-eKeyB-15" value="Учебные планы и нагрузка преподавателя" style="ellipse;whiteSpace=wrap;html=1;" parent="1" vertex="1">
          <mxGeometry x="-1350" y="-530" width="120" height="80" as="geometry" />
        </mxCell>
        <mxCell id="_FZ567E234hKml-eKeyB-18" value="Успеваемость студентов" style="ellipse;whiteSpace=wrap;html=1;" parent="1" vertex="1">
          <mxGeometry x="-1370" y="-700" width="120" height="80" as="geometry" />
        </mxCell>
        <mxCell id="_FZ567E234hKml-eKeyB-22" value="" style="endArrow=none;html=1;rounded=0;entryX=0;entryY=0.75;entryDx=0;entryDy=0;entryPerimeter=0;" parent="1" target="_FZ567E234hKml-eKeyB-18" edge="1">
          <mxGeometry width="50" height="50" relative="1" as="geometry">
            <mxPoint x="-1490" y="-550" as="sourcePoint" />
            <mxPoint x="-1250" y="-670" as="targetPoint" />
          </mxGeometry>
        </mxCell>
        <mxCell id="_FZ567E234hKml-eKeyB-23" value="" style="endArrow=none;html=1;rounded=0;" parent="1" source="_FZ567E234hKml-eKeyB-12" target="_FZ567E234hKml-eKeyB-15" edge="1">
          <mxGeometry width="50" height="50" relative="1" as="geometry">
            <mxPoint x="-1300" y="-620" as="sourcePoint" />
            <mxPoint x="-1250" y="-670" as="targetPoint" />
            <Array as="points">
              <mxPoint x="-1400" y="-510" />
            </Array>
          </mxGeometry>
        </mxCell>
        <mxCell id="_FZ567E234hKml-eKeyB-24" value="" style="endArrow=none;html=1;rounded=0;exitX=1.025;exitY=0.375;exitDx=0;exitDy=0;exitPerimeter=0;" parent="1" source="_FZ567E234hKml-eKeyB-15" target="_FZ567E234hKml-eKeyB-10" edge="1">
          <mxGeometry width="50" height="50" relative="1" as="geometry">
            <mxPoint x="-1340" y="-640" as="sourcePoint" />
            <mxPoint x="-1110" y="-550" as="targetPoint" />
          </mxGeometry>
        </mxCell>
        <mxCell id="_FZ567E234hKml-eKeyB-25" value="" style="endArrow=none;html=1;rounded=0;exitX=1;exitY=1;exitDx=0;exitDy=0;" parent="1" source="_FZ567E234hKml-eKeyB-5" target="_FZ567E234hKml-eKeyB-10" edge="1">
          <mxGeometry width="50" height="50" relative="1" as="geometry">
            <mxPoint x="-1320" y="-790" as="sourcePoint" />
            <mxPoint x="-1250" y="-670" as="targetPoint" />
          </mxGeometry>
        </mxCell>
        <mxCell id="_FZ567E234hKml-eKeyB-26" value="" style="endArrow=none;html=1;rounded=0;" parent="1" edge="1">
          <mxGeometry width="50" height="50" relative="1" as="geometry">
            <mxPoint x="-1240" y="-640" as="sourcePoint" />
            <mxPoint x="-1100" y="-630" as="targetPoint" />
          </mxGeometry>
        </mxCell>
        <mxCell id="_FZ567E234hKml-eKeyB-27" value="" style="endArrow=none;html=1;rounded=0;exitX=1;exitY=0.75;exitDx=0;exitDy=0;" parent="1" edge="1" source="UBtdRpHIm5aC5Gir7e_v-16">
          <mxGeometry width="50" height="50" relative="1" as="geometry">
            <mxPoint x="-1620" y="-710" as="sourcePoint" />
            <mxPoint x="-1380" y="-660" as="targetPoint" />
          </mxGeometry>
        </mxCell>
        <mxCell id="_FZ567E234hKml-eKeyB-29" value="" style="endArrow=none;html=1;rounded=0;exitX=0.992;exitY=0.388;exitDx=0;exitDy=0;exitPerimeter=0;" parent="1" source="_FZ567E234hKml-eKeyB-5" edge="1" target="_FZ567E234hKml-eKeyB-8">
          <mxGeometry width="50" height="50" relative="1" as="geometry">
            <mxPoint x="-1300" y="-620" as="sourcePoint" />
            <mxPoint x="-1170" y="-870" as="targetPoint" />
          </mxGeometry>
        </mxCell>
        <mxCell id="_FZ567E234hKml-eKeyB-31" value="Получение сведений о студентах и группах" style="ellipse;whiteSpace=wrap;html=1;" parent="1" vertex="1">
          <mxGeometry x="-1350" y="-380" width="120" height="80" as="geometry" />
        </mxCell>
        <mxCell id="_FZ567E234hKml-eKeyB-32" value="Заместитель директора" style="shape=umlActor;verticalLabelPosition=bottom;verticalAlign=top;html=1;outlineConnect=0;" parent="1" vertex="1">
          <mxGeometry x="-1120" y="-390" width="60" height="90" as="geometry" />
        </mxCell>
        <mxCell id="_FZ567E234hKml-eKeyB-33" value="" style="endArrow=none;html=1;rounded=0;entryX=0.5;entryY=1;entryDx=0;entryDy=0;" parent="1" edge="1" target="_FZ567E234hKml-eKeyB-15">
          <mxGeometry width="50" height="50" relative="1" as="geometry">
            <mxPoint x="-1130" y="-360" as="sourcePoint" />
            <mxPoint x="-1290" y="-440" as="targetPoint" />
          </mxGeometry>
        </mxCell>
        <mxCell id="_FZ567E234hKml-eKeyB-34" value="" style="endArrow=none;html=1;rounded=0;exitX=0.25;exitY=0.1;exitDx=0;exitDy=0;exitPerimeter=0;" parent="1" target="_FZ567E234hKml-eKeyB-18" edge="1" source="_FZ567E234hKml-eKeyB-32">
          <mxGeometry width="50" height="50" relative="1" as="geometry">
            <mxPoint x="-1140" y="-380" as="sourcePoint" />
            <mxPoint x="-1250" y="-670" as="targetPoint" />
          </mxGeometry>
        </mxCell>
        <mxCell id="_FZ567E234hKml-eKeyB-35" value="" style="endArrow=none;html=1;rounded=0;exitX=1.05;exitY=0.588;exitDx=0;exitDy=0;exitPerimeter=0;" parent="1" source="_FZ567E234hKml-eKeyB-31" edge="1">
          <mxGeometry width="50" height="50" relative="1" as="geometry">
            <mxPoint x="-1300" y="-620" as="sourcePoint" />
            <mxPoint x="-1110" y="-340" as="targetPoint" />
          </mxGeometry>
        </mxCell>
        <mxCell id="_FZ567E234hKml-eKeyB-36" value="" style="endArrow=none;html=1;rounded=0;" parent="1" edge="1">
          <mxGeometry width="50" height="50" relative="1" as="geometry">
            <mxPoint x="-1490" y="-510" as="sourcePoint" />
            <mxPoint x="-1360" y="-350" as="targetPoint" />
          </mxGeometry>
        </mxCell>
        <mxCell id="UBtdRpHIm5aC5Gir7e_v-1" value="Переход из одной группы в другую" style="ellipse;whiteSpace=wrap;html=1;" vertex="1" parent="1">
          <mxGeometry x="-1420" y="-830" width="120" height="80" as="geometry" />
        </mxCell>
        <mxCell id="UBtdRpHIm5aC5Gir7e_v-2" value="" style="endArrow=none;html=1;rounded=0;entryX=-0.008;entryY=0.65;entryDx=0;entryDy=0;entryPerimeter=0;exitX=1;exitY=0.5;exitDx=0;exitDy=0;" edge="1" parent="1" source="UBtdRpHIm5aC5Gir7e_v-16" target="UBtdRpHIm5aC5Gir7e_v-1">
          <mxGeometry width="50" height="50" relative="1" as="geometry">
            <mxPoint x="-1630" y="-760" as="sourcePoint" />
            <mxPoint x="-1270" y="-570" as="targetPoint" />
          </mxGeometry>
        </mxCell>
        <mxCell id="UBtdRpHIm5aC5Gir7e_v-3" value="" style="endArrow=none;html=1;rounded=0;entryX=1;entryY=0.5;entryDx=0;entryDy=0;" edge="1" parent="1" target="UBtdRpHIm5aC5Gir7e_v-1">
          <mxGeometry width="50" height="50" relative="1" as="geometry">
            <mxPoint x="-1100" y="-400" as="sourcePoint" />
            <mxPoint x="-1290" y="-780" as="targetPoint" />
          </mxGeometry>
        </mxCell>
        <mxCell id="UBtdRpHIm5aC5Gir7e_v-5" value="Запись на дополнительные курсы" style="ellipse;whiteSpace=wrap;html=1;" vertex="1" parent="1">
          <mxGeometry x="-1410" y="-950" width="120" height="80" as="geometry" />
        </mxCell>
        <mxCell id="UBtdRpHIm5aC5Gir7e_v-6" value="" style="endArrow=none;html=1;rounded=0;entryX=0.05;entryY=0.738;entryDx=0;entryDy=0;entryPerimeter=0;exitX=1;exitY=0.25;exitDx=0;exitDy=0;" edge="1" parent="1" source="UBtdRpHIm5aC5Gir7e_v-16" target="UBtdRpHIm5aC5Gir7e_v-5">
          <mxGeometry width="50" height="50" relative="1" as="geometry">
            <mxPoint x="-1630" y="-790" as="sourcePoint" />
            <mxPoint x="-1270" y="-670" as="targetPoint" />
          </mxGeometry>
        </mxCell>
        <mxCell id="UBtdRpHIm5aC5Gir7e_v-7" value="" style="endArrow=none;html=1;rounded=0;entryX=1;entryY=1;entryDx=0;entryDy=0;" edge="1" parent="1" target="UBtdRpHIm5aC5Gir7e_v-5">
          <mxGeometry width="50" height="50" relative="1" as="geometry">
            <mxPoint x="-1090" y="-410" as="sourcePoint" />
            <mxPoint x="-1280" y="-880" as="targetPoint" />
          </mxGeometry>
        </mxCell>
        <mxCell id="UBtdRpHIm5aC5Gir7e_v-9" value="Запись студентов и распределение по группам" style="ellipse;whiteSpace=wrap;html=1;" vertex="1" parent="1">
          <mxGeometry x="-1360" y="-240" width="120" height="80" as="geometry" />
        </mxCell>
        <mxCell id="UBtdRpHIm5aC5Gir7e_v-10" value="" style="endArrow=none;html=1;rounded=0;" edge="1" parent="1">
          <mxGeometry width="50" height="50" relative="1" as="geometry">
            <mxPoint x="-1230" y="-210" as="sourcePoint" />
            <mxPoint x="-1110" y="-270" as="targetPoint" />
          </mxGeometry>
        </mxCell>
        <mxCell id="UBtdRpHIm5aC5Gir7e_v-11" value="" style="endArrow=none;html=1;rounded=0;" edge="1" parent="1">
          <mxGeometry width="50" height="50" relative="1" as="geometry">
            <mxPoint x="-1370" y="-230" as="sourcePoint" />
            <mxPoint x="-1520" y="-430" as="targetPoint" />
          </mxGeometry>
        </mxCell>
        <mxCell id="UBtdRpHIm5aC5Gir7e_v-15" value="" style="endArrow=none;html=1;rounded=0;entryX=0.966;entryY=0.688;entryDx=0;entryDy=0;entryPerimeter=0;" edge="1" parent="1" source="_FZ567E234hKml-eKeyB-10" target="UBtdRpHIm5aC5Gir7e_v-5">
          <mxGeometry width="50" height="50" relative="1" as="geometry">
            <mxPoint x="-1110" y="-650" as="sourcePoint" />
            <mxPoint x="-1280" y="-890" as="targetPoint" />
          </mxGeometry>
        </mxCell>
        <mxCell id="UBtdRpHIm5aC5Gir7e_v-16" value="на бюджете" style="rounded=0;whiteSpace=wrap;html=1;" vertex="1" parent="1">
          <mxGeometry x="-1750" y="-740" width="120" height="60" as="geometry" />
        </mxCell>
        <mxCell id="UBtdRpHIm5aC5Gir7e_v-17" value="на платном обучении" style="rounded=0;whiteSpace=wrap;html=1;" vertex="1" parent="1">
          <mxGeometry x="-1760" y="-840" width="120" height="60" as="geometry" />
        </mxCell>
        <mxCell id="UBtdRpHIm5aC5Gir7e_v-18" value="" style="endArrow=none;html=1;rounded=0;entryX=-0.034;entryY=0.632;entryDx=0;entryDy=0;entryPerimeter=0;" edge="1" parent="1" source="BIsx5rSYDtpPCg-pWCxZ-89" target="UBtdRpHIm5aC5Gir7e_v-16">
          <mxGeometry width="50" height="50" relative="1" as="geometry">
            <mxPoint x="-1670" y="-610" as="sourcePoint" />
            <mxPoint x="-1620" y="-660" as="targetPoint" />
          </mxGeometry>
        </mxCell>
        <mxCell id="UBtdRpHIm5aC5Gir7e_v-19" value="" style="endArrow=none;html=1;rounded=0;" edge="1" parent="1">
          <mxGeometry width="50" height="50" relative="1" as="geometry">
            <mxPoint x="-1830" y="-790" as="sourcePoint" />
            <mxPoint x="-1770" y="-810" as="targetPoint" />
          </mxGeometry>
        </mxCell>
        <mxCell id="UBtdRpHIm5aC5Gir7e_v-20" value="" style="endArrow=none;html=1;rounded=0;entryX=0;entryY=0.5;entryDx=0;entryDy=0;exitX=1;exitY=0.75;exitDx=0;exitDy=0;" edge="1" parent="1" source="UBtdRpHIm5aC5Gir7e_v-17" target="_FZ567E234hKml-eKeyB-18">
          <mxGeometry width="50" height="50" relative="1" as="geometry">
            <mxPoint x="-1670" y="-610" as="sourcePoint" />
            <mxPoint x="-1620" y="-660" as="targetPoint" />
          </mxGeometry>
        </mxCell>
        <mxCell id="UBtdRpHIm5aC5Gir7e_v-21" value="" style="endArrow=none;html=1;rounded=0;entryX=0.069;entryY=0.835;entryDx=0;entryDy=0;entryPerimeter=0;" edge="1" parent="1" target="UBtdRpHIm5aC5Gir7e_v-1">
          <mxGeometry width="50" height="50" relative="1" as="geometry">
            <mxPoint x="-1630" y="-810" as="sourcePoint" />
            <mxPoint x="-1620" y="-660" as="targetPoint" />
          </mxGeometry>
        </mxCell>
        <mxCell id="UBtdRpHIm5aC5Gir7e_v-22" value="" style="endArrow=none;html=1;rounded=0;entryX=0;entryY=0.5;entryDx=0;entryDy=0;" edge="1" parent="1" target="UBtdRpHIm5aC5Gir7e_v-5">
          <mxGeometry width="50" height="50" relative="1" as="geometry">
            <mxPoint x="-1630" y="-820" as="sourcePoint" />
            <mxPoint x="-1566.6922383245355" y="-904.1762064591762" as="targetPoint" />
          </mxGeometry>
        </mxCell>
        <mxCell id="UBtdRpHIm5aC5Gir7e_v-24" value="Перевод на бюджет" style="ellipse;whiteSpace=wrap;html=1;" vertex="1" parent="1">
          <mxGeometry x="-1630" y="-1060" width="120" height="80" as="geometry" />
        </mxCell>
        <mxCell id="UBtdRpHIm5aC5Gir7e_v-25" value="Оплата обучения" style="ellipse;whiteSpace=wrap;html=1;" vertex="1" parent="1">
          <mxGeometry x="-1620" y="-1170" width="120" height="80" as="geometry" />
        </mxCell>
        <mxCell id="UBtdRpHIm5aC5Gir7e_v-26" value="Получение стипендии" style="ellipse;whiteSpace=wrap;html=1;" vertex="1" parent="1">
          <mxGeometry x="-1590" y="-970" width="120" height="80" as="geometry" />
        </mxCell>
        <mxCell id="UBtdRpHIm5aC5Gir7e_v-28" value="" style="endArrow=none;html=1;rounded=0;exitX=0.917;exitY=0;exitDx=0;exitDy=0;exitPerimeter=0;" edge="1" parent="1" source="UBtdRpHIm5aC5Gir7e_v-16" target="UBtdRpHIm5aC5Gir7e_v-26">
          <mxGeometry width="50" height="50" relative="1" as="geometry">
            <mxPoint x="-1630" y="-750" as="sourcePoint" />
            <mxPoint x="-1540" y="-880" as="targetPoint" />
          </mxGeometry>
        </mxCell>
        <mxCell id="UBtdRpHIm5aC5Gir7e_v-32" value="Финансовый отдел" style="shape=umlActor;verticalLabelPosition=bottom;verticalAlign=top;html=1;outlineConnect=0;" vertex="1" parent="1">
          <mxGeometry x="-1400" y="-1320" width="80" height="130" as="geometry" />
        </mxCell>
        <mxCell id="UBtdRpHIm5aC5Gir7e_v-35" value="" style="endArrow=none;html=1;rounded=0;entryX=0.054;entryY=0.724;entryDx=0;entryDy=0;entryPerimeter=0;" edge="1" parent="1" target="UBtdRpHIm5aC5Gir7e_v-24">
          <mxGeometry width="50" height="50" relative="1" as="geometry">
            <mxPoint x="-1670" y="-850" as="sourcePoint" />
            <mxPoint x="-1620" y="-900" as="targetPoint" />
          </mxGeometry>
        </mxCell>
        <mxCell id="UBtdRpHIm5aC5Gir7e_v-36" value="" style="endArrow=none;html=1;rounded=0;entryX=0;entryY=0.5;entryDx=0;entryDy=0;" edge="1" parent="1" target="UBtdRpHIm5aC5Gir7e_v-25">
          <mxGeometry width="50" height="50" relative="1" as="geometry">
            <mxPoint x="-1670" y="-850" as="sourcePoint" />
            <mxPoint x="-1620" y="-900" as="targetPoint" />
          </mxGeometry>
        </mxCell>
        <mxCell id="UBtdRpHIm5aC5Gir7e_v-37" value="" style="endArrow=none;html=1;rounded=0;exitX=1;exitY=0;exitDx=0;exitDy=0;" edge="1" parent="1" source="UBtdRpHIm5aC5Gir7e_v-26">
          <mxGeometry width="50" height="50" relative="1" as="geometry">
            <mxPoint x="-1670" y="-850" as="sourcePoint" />
            <mxPoint x="-1390" y="-1170" as="targetPoint" />
          </mxGeometry>
        </mxCell>
        <mxCell id="UBtdRpHIm5aC5Gir7e_v-40" value="" style="endArrow=none;html=1;rounded=0;exitX=0.956;exitY=0.165;exitDx=0;exitDy=0;exitPerimeter=0;" edge="1" parent="1" source="UBtdRpHIm5aC5Gir7e_v-24" target="UBtdRpHIm5aC5Gir7e_v-32">
          <mxGeometry width="50" height="50" relative="1" as="geometry">
            <mxPoint x="-1670" y="-850" as="sourcePoint" />
            <mxPoint x="-1620" y="-900" as="targetPoint" />
          </mxGeometry>
        </mxCell>
        <mxCell id="UBtdRpHIm5aC5Gir7e_v-41" value="" style="endArrow=none;html=1;rounded=0;" edge="1" parent="1" source="UBtdRpHIm5aC5Gir7e_v-25" target="UBtdRpHIm5aC5Gir7e_v-32">
          <mxGeometry width="50" height="50" relative="1" as="geometry">
            <mxPoint x="-1670" y="-850" as="sourcePoint" />
            <mxPoint x="-1620" y="-900" as="targetPoint" />
          </mxGeometry>
        </mxCell>
        <mxCell id="UBtdRpHIm5aC5Gir7e_v-42" value="Проведение занятий" style="ellipse;whiteSpace=wrap;html=1;" vertex="1" parent="1">
          <mxGeometry x="-970" y="-780" width="120" height="80" as="geometry" />
        </mxCell>
        <mxCell id="UBtdRpHIm5aC5Gir7e_v-43" value="" style="endArrow=none;html=1;rounded=0;exitX=1;exitY=0.3333333333333333;exitDx=0;exitDy=0;exitPerimeter=0;" edge="1" parent="1" source="_FZ567E234hKml-eKeyB-10" target="UBtdRpHIm5aC5Gir7e_v-42">
          <mxGeometry width="50" height="50" relative="1" as="geometry">
            <mxPoint x="-1130" y="-610" as="sourcePoint" />
            <mxPoint x="-1080" y="-660" as="targetPoint" />
          </mxGeometry>
        </mxCell>
        <mxCell id="UBtdRpHIm5aC5Gir7e_v-44" value="" style="endArrow=none;html=1;rounded=0;" edge="1" parent="1" source="_FZ567E234hKml-eKeyB-10" target="UBtdRpHIm5aC5Gir7e_v-45">
          <mxGeometry width="50" height="50" relative="1" as="geometry">
            <mxPoint x="-1130" y="-610" as="sourcePoint" />
            <mxPoint x="-800" y="-610" as="targetPoint" />
          </mxGeometry>
        </mxCell>
        <mxCell id="UBtdRpHIm5aC5Gir7e_v-45" value="Проведение дополнительных курсов" style="ellipse;whiteSpace=wrap;html=1;" vertex="1" parent="1">
          <mxGeometry x="-860" y="-650" width="120" height="80" as="geometry" />
        </mxCell>
      </root>
    </mxGraphModel>
  </diagram>
</mxfile>
